<?xml version="1.0" encoding="utf-8"?>
<!-- Generator: Adobe Illustrator 21.1.0, SVG Export Plug-In . SVG Version: 6.00 Build 0)  -->
<svg version="1.1" id="Layer_1" xmlns="http://www.w3.org/2000/svg" xmlns:xlink="http://www.w3.org/1999/xlink" x="0px" y="0px"
	 viewBox="0 0 64 64" style="enable-background:new 0 0 64 64;" xml:space="preserve">
<style type="text/css">
	.st0{fill:#2D2D2D;}
</style>
<g>
	<path class="st0" d="M43.6,5H21.4C12.3,5,5,12.4,5,21.4v22.3c0,9,7.4,16.4,16.4,16.4h22.3c9,0,16.4-7.4,16.4-16.4V21.4
		C60,12.4,52.7,5,43.6,5z M54.5,43.7c0,6-4.9,10.9-10.9,10.9H21.4c-6,0-10.9-4.9-10.9-10.9V21.4c0-6,4.9-10.9,10.9-10.9h22.3
		c6,0,10.9,4.9,10.9,10.9L54.5,43.7L54.5,43.7z"/>
	<path class="st0" d="M32.5,18.3c-7.9,0-14.2,6.4-14.2,14.2s6.4,14.2,14.2,14.2s14.2-6.4,14.2-14.2S40.4,18.3,32.5,18.3z M32.5,41.2
		c-4.8,0-8.7-3.9-8.7-8.7s3.9-8.7,8.7-8.7c4.8,0,8.7,3.9,8.7,8.7C41.2,37.3,37.3,41.2,32.5,41.2z"/>
	<circle class="st0" cx="46.8" cy="18.4" r="3.4"/>
</g>
</svg>
