<?xml version="1.0" encoding="utf-8"?>
<!-- Generator: Adobe Illustrator 21.1.0, SVG Export Plug-In . SVG Version: 6.00 Build 0)  -->
<svg version="1.1" id="Layer_1" xmlns="http://www.w3.org/2000/svg" xmlns:xlink="http://www.w3.org/1999/xlink" x="0px" y="0px"
	 viewBox="0 0 64 64" style="enable-background:new 0 0 64 64;" xml:space="preserve">
<style type="text/css">
	.st0{fill:#2D2D2D;}
</style>
<g>
	<g>
		<path class="st0" d="M62.2,13.7c-2.2,1-4.5,1.6-7,1.9c2.5-1.5,4.5-3.9,5.4-6.8c-2.4,1.4-5,2.4-7.8,3C50.5,9.5,47.4,8,43.9,8
			c-6.7,0-12.2,5.5-12.2,12.2c0,1,0.1,1.9,0.3,2.8c-10.2-0.5-19.2-5.4-25.2-12.8c-1.1,1.8-1.7,3.9-1.7,6.1c0,4.2,2.2,8,5.4,10.2
			c-2-0.1-3.9-0.6-5.5-1.5v0.1c0,5.9,4.2,10.9,9.8,12c-1,0.3-2.1,0.4-3.2,0.4c-0.8,0-1.5-0.1-2.3-0.2c1.6,4.9,6.1,8.4,11.4,8.5
			c-4.2,3.3-9.5,5.2-15.2,5.2c-1,0-1.9-0.1-2.9-0.2c5.4,3.5,11.8,5.5,18.7,5.5c22.5,0,34.8-18.6,34.8-34.8l0-1.6
			C58.5,18.3,60.5,16.2,62.2,13.7L62.2,13.7z M62.2,13.7"/>
	</g>
</g>
<g>
	<path class="st0" d="M143.6,4h-22.3c-9,0-16.4,7.4-16.4,16.4v22.3c0,9,7.4,16.4,16.4,16.4h22.3c9,0,16.4-7.4,16.4-16.4V20.4
		C160,11.4,152.7,4,143.6,4z M154.5,42.7c0,6-4.9,10.9-10.9,10.9h-22.3c-6,0-10.9-4.9-10.9-10.9V20.4c0-6,4.9-10.9,10.9-10.9h22.3
		c6,0,10.9,4.9,10.9,10.9V42.7L154.5,42.7z"/>
	<path class="st0" d="M132.5,17.3c-7.9,0-14.2,6.4-14.2,14.2s6.4,14.2,14.2,14.2s14.2-6.4,14.2-14.2S140.4,17.3,132.5,17.3z
		 M132.5,40.2c-4.8,0-8.7-3.9-8.7-8.7s3.9-8.7,8.7-8.7c4.8,0,8.7,3.9,8.7,8.7C141.2,36.3,137.3,40.2,132.5,40.2z"/>
	<circle class="st0" cx="146.8" cy="17.4" r="3.4"/>
</g>
</svg>
