<?xml version="1.0" encoding="utf-8"?>
<!-- Generator: Adobe Illustrator 21.1.0, SVG Export Plug-In . SVG Version: 6.00 Build 0)  -->
<svg version="1.1" id="Layer_1" xmlns="http://www.w3.org/2000/svg" xmlns:xlink="http://www.w3.org/1999/xlink" x="0px" y="0px"
	 viewBox="0 0 64 64" style="enable-background:new 0 0 64 64;" xml:space="preserve">
<style type="text/css">
	.st0{fill:#2D2D2D;}
</style>
<path class="st0" d="M52.5,8c-7.9-0.3-13.3,4.2-16.1,13.3c1.4-0.6,2.9-0.9,4.2-0.9c2.9,0,4.2,1.6,3.8,4.9c-0.2,2-1.4,4.8-3.8,8.6
	c-2.4,3.8-4.2,5.6-5.4,5.6c-1.5,0-2.9-2.9-4.2-8.7c-0.4-1.7-1.2-6.1-2.3-13.1c-1-6.5-3.8-9.5-8.2-9.1c-1.9,0.2-4.7,1.9-8.4,5.1
	c-2.7,2.5-5.5,5-8.3,7.4l2.7,3.5C9.1,22.9,10.6,22,11,22c2,0,3.8,3.1,5.5,9.2c1.5,5.6,3.1,11.3,4.6,16.9c2.3,6.2,5.1,9.2,8.4,9.2
	c5.4,0,11.9-5,19.7-15.1c7.5-9.7,11.4-17.3,11.6-22.8C61.2,12,58.4,8.2,52.5,8L52.5,8z M52.5,8"/>
</svg>
